<svg width="32" height="32" viewBox="0 0 33 33" fill="none" xmlns="http://www.w3.org/2000/svg">
<path d="M29.3245 0H4.12373C2.22651 0 0.687256 1.53925 0.687256 3.43647V28.6373C0.687256 30.5345 2.22651 32.0737 4.12373 32.0737H29.3245C31.2217 32.0737 32.761 30.5345 32.761 28.6373V3.43647C32.761 1.53925 31.2217 0 29.3245 0ZM20.54 27.4703C19.9387 27.5777 19.7167 27.2054 19.7167 26.8976C19.7167 26.511 19.731 24.535 19.731 22.9385C19.731 21.8216 19.3588 21.1128 18.922 20.7405C21.571 20.447 24.3631 20.0819 24.3631 15.5071C24.3631 14.2041 23.8978 13.5526 23.1389 12.7149C23.2606 12.4071 23.6687 11.1399 23.0172 9.49326C22.022 9.18541 19.7454 10.7748 19.7454 10.7748C18.8003 10.5099 17.7765 10.3739 16.7671 10.3739C15.7576 10.3739 14.7338 10.5099 13.7888 10.7748C13.7888 10.7748 11.5121 9.18541 10.517 9.49326C9.8655 11.1327 10.2664 12.3999 10.3953 12.7149C9.6364 13.5526 9.27844 14.2041 9.27844 15.5071C9.27844 20.0604 11.9489 20.447 14.5978 20.7405C14.2542 21.0484 13.9463 21.5782 13.8389 22.3371C13.1588 22.6449 11.4191 23.1747 10.381 21.3419C9.72947 20.2108 8.55535 20.1177 8.55535 20.1177C7.39554 20.1034 8.47659 20.8479 8.47659 20.8479C9.2498 21.2059 9.79391 22.5805 9.79391 22.5805C10.4884 24.7068 13.8103 23.9909 13.8103 23.9909C13.8103 24.986 13.8246 26.604 13.8246 26.8976C13.8246 27.2054 13.6098 27.5777 13.0013 27.4703C8.27613 25.8881 4.96853 21.392 4.96853 16.1371C4.96853 9.56485 9.99437 4.5748 16.5666 4.5748C23.1389 4.5748 28.4654 9.56485 28.4654 16.1371C28.4726 21.392 25.2652 25.8953 20.54 27.4703ZM13.5168 23.096C13.3807 23.1246 13.2519 23.0673 13.2375 22.9743C13.2232 22.8669 13.3163 22.7738 13.4523 22.7452C13.5883 22.7308 13.7172 22.7881 13.7315 22.8812C13.753 22.9743 13.6599 23.0673 13.5168 23.096ZM12.8366 23.0315C12.8366 23.1246 12.7292 23.2034 12.586 23.2034C12.4285 23.2177 12.3211 23.1389 12.3211 23.0315C12.3211 22.9385 12.4285 22.8597 12.5717 22.8597C12.7078 22.8454 12.8366 22.9241 12.8366 23.0315ZM11.8558 22.9528C11.8272 23.0458 11.684 23.0888 11.5623 23.0458C11.4262 23.0172 11.3332 22.9098 11.3618 22.8167C11.3904 22.7237 11.5336 22.6807 11.6553 22.7094C11.7985 22.7523 11.8916 22.8597 11.8558 22.9528ZM10.9752 22.5662C10.9108 22.6449 10.7747 22.6306 10.6673 22.5232C10.56 22.4301 10.5313 22.2941 10.6029 22.2297C10.6673 22.1509 10.8034 22.1652 10.9108 22.2726C11.0038 22.3657 11.0396 22.5089 10.9752 22.5662ZM10.3237 21.9147C10.2593 21.9576 10.1376 21.9147 10.0588 21.8073C9.98005 21.6999 9.98005 21.5782 10.0588 21.5281C10.1376 21.4636 10.2593 21.5138 10.3237 21.6211C10.4025 21.7285 10.4025 21.8574 10.3237 21.9147ZM9.85834 21.2202C9.79391 21.2847 9.68652 21.2489 9.60777 21.1773C9.52901 21.0842 9.5147 20.9768 9.57913 20.9267C9.64356 20.8623 9.75095 20.898 9.82971 20.9696C9.90846 21.0627 9.92278 21.1701 9.85834 21.2202ZM9.37867 20.6904C9.35003 20.7549 9.25696 20.7692 9.17821 20.7191C9.08514 20.6761 9.04218 20.5974 9.07082 20.5329C9.09945 20.49 9.17821 20.4685 9.27128 20.5043C9.36435 20.5544 9.40731 20.6332 9.37867 20.6904Z" fill="white"/>
</svg>
